<svg version="1.2" xmlns="http://www.w3.org/2000/svg" viewBox="0 0 80 40" width="80" height="40">
	<title>attēls_2024-12-04_231910988-removebg-preview (3)-svg</title>
	<style>
		.s0 { fill: #258ae7 } 
		.s1 { fill: #2787e2 } 
		.s2 { fill: #2987e4 } 
	</style>
	<g>
	</g>
	<g>
	</g>
	<g>
	</g>
	<g>
	</g>
	<g>
	</g>
	<g>
	</g>
	<g>
	</g>
	<g>
	</g>
	<g>
	</g>
	<g>
	</g>
	<g>
		<path fill-rule="evenodd" class="s0" d="m61.5 3.5q1.9 0.9 4 1.5 6.3 7 12 14.5-6.2 6.5-12 13.5-6.7 4-5.5-3.5 4.9-4.8 8.5-10.5-4.2-5.2-8.5-10.5-0.9-3 1.5-5z"/>
	</g>
	<g>
		<path fill-rule="evenodd" class="s1" d="m19.5 5.5q1.7 2.4-0.5 5-4.5 4.3-8.5 9 6.4 4.6 10 11.5-2.2 3.3-6 2-6-5.9-11-12.5-0.2-1.6 0.5-3 5.8-5.7 11.5-11.5 1.9-0.7 4-0.5z"/>
	</g>
	<g>
		<path fill-rule="evenodd" class="s2" d="m47.5-0.5q2.5 0 5 0-0.1 1.5 1 2.5-11 19.2-21 37.5-2.5 0-5 0-1.5-2.9 0.5-6 9.6-17.1 19.5-34z"/>
	</g>
</svg>