<?xml version="1.0" encoding="UTF-8"?>
<!DOCTYPE svg PUBLIC "-//W3C//DTD SVG 1.1//EN" "http://www.w3.org/Graphics/SVG/1.1/DTD/svg11.dtd">
<svg xmlns="http://www.w3.org/2000/svg" version="1.1" width="256px" height="40px" style="shape-rendering:geometricPrecision; text-rendering:geometricPrecision; image-rendering:optimizeQuality; fill-rule:evenodd; clip-rule:evenodd" xmlns:xlink="http://www.w3.org/1999/xlink">
<g><path style="opacity:0.978" fill="#f2f2f2" d="M 142.5,5.5 C 145.231,5.94079 147.731,6.27412 150,6.5C 150.333,13.8333 150.667,21.1667 151,28.5C 152.188,29.5634 152.688,30.8967 152.5,32.5C 147.142,32.7377 141.809,32.9043 136.5,33C 134.333,32.1667 132.833,30.6667 132,28.5C 129.911,18.0984 134.078,13.0984 144.5,13.5C 144.5,12.1667 144.5,10.8333 144.5,9.5C 143.5,9.5 142.5,9.5 141.5,9.5C 141.433,8.04125 141.766,6.70792 142.5,5.5 Z M 139.5,17.5 C 141.167,17.5 142.833,17.5 144.5,17.5C 144.665,20.8499 144.498,24.1832 144,27.5C 139.952,29.8923 137.452,28.559 136.5,23.5C 137.129,21.2592 138.129,19.2592 139.5,17.5 Z"/></g>
<g><path style="opacity:0.973" fill="#f0f0f0" d="M 206.5,5.5 C 208.844,5.5062 210.178,6.67286 210.5,9C 208.241,13.7197 206.241,13.553 204.5,8.5C 204.942,7.26133 205.609,6.26133 206.5,5.5 Z"/></g>
<g><path style="opacity:0.455" fill="#041e42" d="M 19.5,5.5 C 18.1266,5.34332 16.7932,5.50999 15.5,6C 11.6667,9.83333 7.83333,13.6667 4,17.5C 3.51722,18.448 3.35055,19.448 3.5,20.5C 2.15219,19.4732 1.65219,18.1398 2,16.5C 6.16667,12.3333 10.3333,8.16667 14.5,4C 16.6742,3.12313 18.3409,3.62313 19.5,5.5 Z"/></g>
<g><path style="opacity:1" fill="#ececec" d="M 92.5,7.5 C 96.9017,7.22806 101.235,7.56139 105.5,8.5C 106.474,10.7427 106.808,13.076 106.5,15.5C 104.833,15.5 103.167,15.5 101.5,15.5C 101.67,14.1779 101.337,13.0113 100.5,12C 92.1855,12.0791 89.3522,16.2458 92,24.5C 94.0527,28.2916 97.2194,29.4582 101.5,28C 102.337,26.9887 102.67,25.8221 102.5,24.5C 107.213,24.4676 108.713,26.8009 107,31.5C 98.5334,35.4334 91.5334,33.7668 86,26.5C 83.6607,18.4007 85.8274,12.0674 92.5,7.5 Z"/></g>
<g><path style="opacity:1" fill="#f5f5f5" d="M 174.5,7.5 C 177.833,7.5 181.167,7.5 184.5,7.5C 182.614,10.4554 181.614,13.7887 181.5,17.5C 185.167,17.5 188.833,17.5 192.5,17.5C 192.243,14.0678 191.576,10.7345 190.5,7.5C 193.85,7.33499 197.183,7.50166 200.5,8C 201.337,9.01127 201.67,10.1779 201.5,11.5C 200.5,11.5 199.5,11.5 198.5,11.5C 198.171,17.2055 198.505,22.8722 199.5,28.5C 201.488,29.2888 201.821,30.4555 200.5,32C 197.183,32.4983 193.85,32.665 190.5,32.5C 191.576,29.2655 192.243,25.9322 192.5,22.5C 188.833,22.5 185.167,22.5 181.5,22.5C 181.5,24.5 181.5,26.5 181.5,28.5C 182.5,28.5 183.5,28.5 184.5,28.5C 184.5,29.8333 184.5,31.1667 184.5,32.5C 180.833,32.5 177.167,32.5 173.5,32.5C 173.222,30.6536 173.889,29.3202 175.5,28.5C 176.495,22.8722 176.829,17.2055 176.5,11.5C 175.5,11.5 174.5,11.5 173.5,11.5C 173.433,10.0413 173.766,8.70792 174.5,7.5 Z"/></g>
<g><path style="opacity:0.999" fill="#f3f3f3" d="M 115.5,13.5 C 126.498,11.9999 130.665,16.6665 128,27.5C 125.367,32.7315 121.201,34.5649 115.5,33C 109.975,30.0812 108.142,25.5812 110,19.5C 111.36,16.9774 113.193,14.9774 115.5,13.5 Z M 116.5,17.5 C 122.501,17.4565 124.668,20.4565 123,26.5C 121.097,29.9547 118.763,30.288 116,27.5C 115.341,24.1119 115.508,20.7786 116.5,17.5 Z"/></g>
<g><path style="opacity:0.995" fill="#f3f3f3" d="M 159.5,13.5 C 163.584,13.0431 167.417,13.7098 171,15.5C 172.123,18.9563 171.29,21.7897 168.5,24C 165.728,24.5257 163.062,25.3591 160.5,26.5C 163.146,28.7798 166.146,29.1132 169.5,27.5C 171.27,28.8196 171.603,30.3196 170.5,32C 158.819,35.7539 153.653,31.5872 155,19.5C 156.332,17.34 157.832,15.34 159.5,13.5 Z M 161.5,17.5 C 163.288,17.2148 164.955,17.5481 166.5,18.5C 165.278,20.9783 163.278,21.9783 160.5,21.5C 160.433,20.0413 160.766,18.7079 161.5,17.5 Z"/></g>
<g><path style="opacity:0.999" fill="#f4f4f4" d="M 203.5,13.5 C 205.833,13.5 208.167,13.5 210.5,13.5C 210.334,18.5111 210.501,23.5111 211,28.5C 212.706,29.3079 213.539,30.6412 213.5,32.5C 209.833,32.5 206.167,32.5 202.5,32.5C 202.461,30.6412 203.294,29.3079 205,28.5C 205.499,24.8484 205.665,21.1817 205.5,17.5C 204.5,17.5 203.5,17.5 202.5,17.5C 202.433,16.0413 202.766,14.7079 203.5,13.5 Z"/></g>
<g><path style="opacity:0.996" fill="#f3f3f3" d="M 213.5,13.5 C 216.833,13.5 220.167,13.5 223.5,13.5C 221.179,17.9705 221.679,22.3038 225,26.5C 225.942,23.5571 227.108,20.7238 228.5,18C 226.893,16.951 226.227,15.451 226.5,13.5C 229.5,13.5 232.5,13.5 235.5,13.5C 232.611,19.4869 230.278,25.8203 228.5,32.5C 225.833,32.5 223.167,32.5 220.5,32.5C 219.356,26.0436 216.689,20.3769 212.5,15.5C 212.863,14.8165 213.196,14.1499 213.5,13.5 Z"/></g>
<g><path style="opacity:0.989" fill="#f1f1f1" d="M 242.5,13.5 C 245.518,13.3354 248.518,13.502 251.5,14C 255.072,16.6258 255.405,19.6258 252.5,23C 249.688,24.5489 246.688,25.3822 243.5,25.5C 243.5,26.5 243.5,27.5 243.5,28.5C 246.448,28.7771 249.281,28.4438 252,27.5C 254.168,28.6291 254.668,30.1291 253.5,32C 239.295,35.4632 234.461,30.2966 239,16.5C 240.145,15.3636 241.312,14.3636 242.5,13.5 Z M 244.5,17.5 C 249.578,17.3371 250.245,18.5038 246.5,21C 245.167,21.6667 243.833,21.6667 242.5,21C 243.305,19.8873 243.972,18.7206 244.5,17.5 Z"/></g>
<g><path style="opacity:1" fill="#258ae7" d="M 61.5,3.5 C 62.766,4.0899 64.0993,4.5899 65.5,5C 69.6904,9.68907 73.6904,14.5224 77.5,19.5C 73.3431,23.8257 69.3431,28.3257 65.5,33C 61.0644,35.6448 59.231,34.4781 60,29.5C 63.2499,26.3037 66.0832,22.8037 68.5,19C 65.6804,15.5112 62.847,12.0112 60,8.5C 59.3872,6.5048 59.8872,4.83814 61.5,3.5 Z"/></g>
<g><path style="opacity:1" fill="#2787e2" d="M 19.5,5.5 C 20.6211,7.08944 20.4544,8.7561 19,10.5C 15.9838,13.3489 13.1504,16.3489 10.5,19.5C 14.7346,22.5667 18.068,26.4001 20.5,31C 19.033,33.1856 17.033,33.8523 14.5,33C 10.4727,29.0831 6.80599,24.9165 3.5,20.5C 3.35055,19.448 3.51722,18.448 4,17.5C 7.83333,13.6667 11.6667,9.83333 15.5,6C 16.7932,5.50999 18.1266,5.34332 19.5,5.5 Z"/></g>
<g><path style="opacity:1" fill="#2987e4" d="M 47.5,-0.5 C 49.1667,-0.5 50.8333,-0.5 52.5,-0.5C 52.4142,0.495904 52.7476,1.32924 53.5,2C 46.1993,14.8118 39.1993,27.3118 32.5,39.5C 30.8333,39.5 29.1667,39.5 27.5,39.5C 26.5015,37.5495 26.6682,35.5495 28,33.5C 34.41,22.0893 40.91,10.756 47.5,-0.5 Z"/></g>
</svg>
