<?xml version="1.0" standalone="no"?>
<!DOCTYPE svg PUBLIC "-//W3C//DTD SVG 20010904//EN"
 "http://www.w3.org/TR/2001/REC-SVG-20010904/DTD/svg10.dtd">
<svg version="1.0" xmlns="http://www.w3.org/2000/svg"
 width="256.000000pt" height="40.000000pt" viewBox="0 0 256.000000 40.000000"
 preserveAspectRatio="xMidYMid meet">

<g transform="translate(0.000000,40.000000) scale(0.100000,-0.100000)"
fill-rule="evenodd">
<path d="M475 373 c-18 -28 -18 -28 2 -10 14 12 23 15 28 8 8 -14 25 -14 25
-1 0 6 -3 9 -7 9 -20 -3 -26 2 -13 11 13 8 13 10 -1 10 -9 0 -25 -12 -34 -27z"/>
<path d="M126 308 c-19 -24 -32 -45 -29 -48 3 -3 8 1 10 8 3 6 9 10 14 6 5 -3
8 -2 7 3 -2 4 1 8 5 8 5 0 15 13 24 28 9 18 20 27 29 23 9 -3 12 -1 9 4 -12
20 -34 9 -69 -32z"/>
<path d="M441 313 c-10 -24 -9 -26 2 -11 8 10 17 15 20 11 4 -3 7 1 7 10 0 26
-15 20 -29 -10z"/>
<path d="M613 325 c0 -8 4 -12 9 -9 5 3 6 10 3 15 -9 13 -12 11 -12 -6z"/>
<path d="M637 320 c-6 -23 9 -36 38 -31 l20 3 -20 -17 c-19 -16 -19 -16 4 -5
l23 12 -28 29 c-15 16 -29 29 -30 29 -1 0 -4 -9 -7 -20z m27 -21 c-3 -5 -10
-7 -15 -3 -5 3 -7 10 -3 15 3 5 10 7 15 3 5 -3 7 -10 3 -15z"/>
<path d="M460 275 c0 -8 2 -15 4 -15 2 0 6 7 10 15 3 8 1 15 -4 15 -6 0 -10
-7 -10 -15z"/>
<path d="M415 270 c-3 -6 1 -7 9 -4 18 7 21 14 7 14 -6 0 -13 -4 -16 -10z"/>
<path d="M689 254 c-10 -12 -10 -15 2 -12 8 2 13 -3 11 -12 -2 -8 0 -11 4 -7
11 11 14 36 4 42 -4 3 -14 -2 -21 -11z"/>
<path d="M119 238 c-12 -23 -12 -23 10 -4 23 21 26 26 11 26 -5 0 -15 -10 -21
-22z"/>
<path d="M423 244 c-5 -13 -7 -13 -14 -2 -7 10 -9 10 -9 1 0 -22 4 -27 25 -30
12 -2 16 0 8 5 -8 5 -9 13 -3 22 7 11 10 12 10 2 0 -7 5 -10 10 -7 12 7 4 25
-11 25 -5 0 -12 -7 -16 -16z"/>
<path d="M52 228 c-18 -18 -14 -36 10 -49 17 -9 23 -9 26 0 2 6 8 8 14 5 5 -3
2 -14 -9 -26 -9 -11 -13 -19 -8 -18 22 5 36 -1 29 -12 -4 -7 -3 -8 5 -4 6 4 9
12 6 17 -4 5 -2 9 3 9 16 0 22 -13 11 -27 -6 -7 -8 -14 -3 -14 56 -8 56 -8 7
46 -46 50 -66 66 -60 46 2 -9 -3 -11 -22 -11 -10 0 -9 19 2 38 10 15 5 16 -11
0z m68 -68 c0 -5 -5 -10 -11 -10 -5 0 -7 5 -4 10 3 6 8 10 11 10 2 0 4 -4 4
-10z m45 -40 c3 -5 1 -10 -4 -10 -6 0 -11 5 -11 10 0 6 2 10 4 10 3 0 8 -4 11
-10z"/>
<path d="M743 207 c3 -25 21 -26 25 -2 2 15 1 17 -6 6 -8 -11 -11 -11 -16 0
-3 9 -5 7 -3 -4z"/>
<path d="M400 182 c-8 -9 -14 -23 -12 -30 2 -8 -1 -11 -7 -7 -7 4 -8 0 -4 -11
6 -15 7 -15 15 1 6 9 7 19 4 22 -3 3 5 14 17 24 12 10 18 18 12 18 -5 0 -17
-7 -25 -17z"/>
<path d="M656 140 c-48 -50 -51 -59 -15 -40 13 8 19 7 19 0 0 -6 5 -8 11 -4 8
5 6 10 -5 16 -16 9 -16 11 0 23 10 7 23 11 30 8 14 -5 25 20 15 36 -5 7 -24
-6 -55 -39z m54 26 c0 -3 -4 -8 -10 -11 -5 -3 -10 -1 -10 4 0 6 5 11 10 11 6
0 10 -2 10 -4z"/>
<path d="M350 131 c0 -6 4 -13 10 -16 6 -3 7 1 4 9 -7 18 -14 21 -14 7z"/>
<path d="M333 113 c4 -7 0 -16 -10 -22 -10 -6 -13 -11 -8 -11 6 0 3 -5 -5 -10
-11 -7 -11 -10 -2 -10 7 0 10 -4 7 -10 -3 -5 -1 -10 4 -10 6 0 11 5 11 11 0 5
6 7 13 3 8 -6 8 -3 -1 9 -17 20 -7 38 16 30 18 -7 17 -5 -12 17 -11 8 -17 10
-13 3z"/>
<path d="M285 20 c3 -5 8 -10 11 -10 2 0 4 5 4 10 0 6 -5 10 -11 10 -5 0 -7
-4 -4 -10z"/>
</g>
</svg>
